<svg xmlns="http://www.w3.org/2000/svg" viewBox="0 0 215.4 75.47"><defs><style>.cls-1{fill:#27aae1;}.cls-2{fill:#434a4f;}</style></defs><g id="Layer_2" data-name="Layer 2"><g id="Layer_2-2" data-name="Layer 2"><path class="cls-1" d="M37.56,9.14A28.39,28.39,0,1,0,65.94,37.53,28.4,28.4,0,0,0,37.56,9.14Zm0,55.14A26.76,26.76,0,1,1,64.31,37.53,26.78,26.78,0,0,1,37.56,64.28Z"/><path class="cls-1" d="M215.32,30.83A6.21,6.21,0,0,0,214,27a6.64,6.64,0,0,0-4.31-2.23H185.92a1.3,1.3,0,0,1-1-.34,1.38,1.38,0,0,1-.39-.93V20.73a1.21,1.21,0,0,1,.39-.95,1.27,1.27,0,0,1,.94-.31h29.42V17.1a6.09,6.09,0,0,0-1.22-3.61,5.94,5.94,0,0,0-4.41-2.38h-27A6,6,0,0,0,177.81,13a5.93,5.93,0,0,0-1.56,4.06v9.74A6.55,6.55,0,0,0,178,31.22,6.13,6.13,0,0,0,182.15,33h23.57a1.35,1.35,0,0,1,1,.45,1.18,1.18,0,0,1,.32.81V37.1a1.22,1.22,0,0,1-.32.84,1.24,1.24,0,0,1-.91.4H174.07L159.26,11.11H149l-5.19,9.46-5.17-9.46h-10.3L113,39.1,102.15,26.49l15-15.25H106L91.26,26V11.11H82V46.67h9.3V26.4l17.59,20.27h10.34l14.23-26.08,5.19,9.47-9.08,16.61h10.33l14.25-26.1,14.23,26.1h41.35a6.38,6.38,0,0,0,4.41-2.34,7.53,7.53,0,0,0,1.22-4.28Z"/><polygon class="cls-1" points="125.22 44.59 125.24 44.59 125.22 44.57 125.22 44.59"/><polygon class="cls-2" points="81.83 51.78 92.37 51.78 92.37 53.39 87.97 53.39 87.97 64.42 86.15 64.42 86.15 53.39 81.83 53.39 81.83 51.78"/><polygon class="cls-2" points="94.96 51.8 102.12 51.8 102.12 53.41 96.77 53.41 96.77 57.26 101.94 57.26 101.94 58.88 96.77 58.88 96.77 62.8 102.29 62.8 102.29 64.41 94.96 64.41 94.96 51.8"/><path class="cls-2" d="M116,61.5v2a9.38,9.38,0,0,1-4.59,1.09,7,7,0,0,1-3.59-.85,6.43,6.43,0,0,1-3.19-5.57,6.17,6.17,0,0,1,2-4.63,6.78,6.78,0,0,1,4.85-1.88,11.27,11.27,0,0,1,4.42,1v1.94a8.74,8.74,0,0,0-4.33-1.26,5,5,0,0,0-3.6,1.36,4.84,4.84,0,0,0,0,6.85,5,5,0,0,0,3.61,1.33A8.16,8.16,0,0,0,116,61.5Z"/><polygon class="cls-2" points="128 51.8 129.81 51.8 129.81 64.42 128 64.42 128 58.93 120.91 58.93 120.91 64.42 119.1 64.42 119.1 51.8 120.91 51.8 120.91 57.26 128 57.26 128 51.8"/><polygon class="cls-2" points="143.51 51.8 145.22 51.8 145.22 64.42 143.67 64.42 135.24 54.7 135.24 64.42 133.53 64.42 133.53 51.8 135 51.8 143.51 61.6 143.51 51.8"/><path class="cls-2" d="M155,51.62a6.81,6.81,0,0,1,4.87,1.85,6.14,6.14,0,0,1,2,4.65,6,6,0,0,1-2,4.62,7,7,0,0,1-5,1.83,6.58,6.58,0,0,1-4.75-1.83,6.1,6.1,0,0,1-1.9-4.59,6.23,6.23,0,0,1,1.91-4.68A6.7,6.7,0,0,1,155,51.62Zm.07,1.72a4.91,4.91,0,0,0-3.56,1.35,4.63,4.63,0,0,0-1.39,3.46,4.51,4.51,0,0,0,1.4,3.4,5.2,5.2,0,0,0,7,0A4.59,4.59,0,0,0,160,58.08a4.49,4.49,0,0,0-1.42-3.37A4.73,4.73,0,0,0,155.08,53.34Z"/><polygon class="cls-2" points="164.95 51.8 166.75 51.8 166.75 62.78 172.43 62.78 172.43 64.42 164.95 64.42 164.95 51.8"/><path class="cls-2" d="M181.1,51.62A6.81,6.81,0,0,1,186,53.47a6.14,6.14,0,0,1,1.94,4.65,6,6,0,0,1-2,4.62,7,7,0,0,1-5,1.83,6.56,6.56,0,0,1-4.74-1.83,6.1,6.1,0,0,1-1.91-4.59,6.24,6.24,0,0,1,1.92-4.68A6.69,6.69,0,0,1,181.1,51.62Zm.07,1.72a4.91,4.91,0,0,0-3.56,1.35,4.63,4.63,0,0,0-1.4,3.46,4.55,4.55,0,0,0,1.4,3.4,5.21,5.21,0,0,0,7,0,4.62,4.62,0,0,0,1.41-3.44,4.51,4.51,0,0,0-1.41-3.37A4.77,4.77,0,0,0,181.17,53.34Z"/><path class="cls-2" d="M197.85,58.21h4.24v5.35a11.66,11.66,0,0,1-4.63,1,6.86,6.86,0,0,1-5-1.83,6.06,6.06,0,0,1-1.87-4.51,6.25,6.25,0,0,1,1.94-4.71,6.73,6.73,0,0,1,4.87-1.88,8.74,8.74,0,0,1,2,.23,15.3,15.3,0,0,1,2.43.85v1.83a9,9,0,0,0-4.49-1.31,4.78,4.78,0,0,0-3.49,1.42,5,5,0,0,0,0,7A5.05,5.05,0,0,0,197.51,63a8.59,8.59,0,0,0,2.6-.5l.17,0V59.82h-2.43Z"/><polygon class="cls-2" points="213.21 51.8 215.4 51.8 210.74 57.75 210.74 64.42 208.89 64.42 208.89 57.75 204.22 51.8 206.4 51.8 209.78 56.15 213.21 51.8"/><path class="cls-1" d="M11,51.19V64.45H24A30.12,30.12,0,0,1,11,51.19Z"/><path class="cls-1" d="M23.6,11.13H11V24.21A30,30,0,0,1,23.6,11.13Z"/><path class="cls-1" d="M64.33,23.79V11.16H52A30.13,30.13,0,0,1,64.33,23.79Z"/><path class="cls-1" d="M51.64,64.45H64.36V51.64A30,30,0,0,1,51.64,64.45Z"/><path class="cls-1" d="M9.28,28.5,0,37.78l9.15,9.16A30.15,30.15,0,0,1,9.28,28.5Z"/><path class="cls-1" d="M28.56,66.34l9.12,9.13,9.23-9.22a30.26,30.26,0,0,1-9.32,1.48A29.92,29.92,0,0,1,28.56,66.34Z"/><path class="cls-1" d="M46.48,8.78,37.7,0,28.62,9.07a30,30,0,0,1,17.86-.29Z"/><path class="cls-1" d="M66.32,46.75l9-9L66.59,29a30.17,30.17,0,0,1,1.22,8.45A29.86,29.86,0,0,1,66.32,46.75Z"/><path class="cls-1" d="M37.56,12.34A25.19,25.19,0,1,0,62.74,37.53,25.21,25.21,0,0,0,37.56,12.34ZM56.71,47.28,46.25,43.84l6.51,8.89-8.88-6.51,3.43,10.46-6.43-8.93,0,11L37.55,48.28,34.19,58.76l0-11-6.44,8.93,3.45-10.46-8.89,6.51,6.5-8.89L18.4,47.28l8.93-6.43-11,0L26.8,37.52,16.32,34.16l11,.05L18.4,27.76l10.45,3.45-6.5-8.89,8.89,6.51L27.79,18.36l6.44,8.94,0-11,3.36,10.48,3.37-10.48,0,11,6.43-8.94L43.88,28.83l8.88-6.51-6.51,8.89,10.46-3.45-8.93,6.45,11-.05L48.31,37.52l10.48,3.37-11,0Z"/></g></g></svg>